<svg width="24" height="24" viewBox="0 0 24 24" fill="none" xmlns="http://www.w3.org/2000/svg">
<path fill-rule="evenodd" clip-rule="evenodd" d="M7.24997 6.63104V5.46126C7.24997 4.59501 7.88371 3.85912 8.74037 3.73062L9.96029 3.54763C11.3125 3.3448 12.6874 3.3448 14.0397 3.54763L15.2596 3.73062C16.1162 3.85912 16.75 4.59501 16.75 5.46126V6.63104L18.464 6.76939C19.7764 6.87533 20.8469 7.86347 21.0574 9.16319C21.5226 12.0357 21.5226 14.9644 21.0574 17.8369C20.8469 19.1367 19.7764 20.1248 18.464 20.2307L16.5921 20.3818C13.5356 20.6285 10.4643 20.6285 7.40784 20.3818L5.53592 20.2307C4.22354 20.1248 3.153 19.1367 2.94252 17.8369C2.47733 14.9644 2.47733 12.0357 2.94252 9.16319C3.153 7.86347 4.22354 6.87533 5.53592 6.76939L7.24997 6.63104ZM10.1828 5.03104C11.3875 4.85033 12.6124 4.85033 13.8171 5.03104L15.0371 5.21402C15.1594 5.23238 15.25 5.33751 15.25 5.46126V6.52586C13.0851 6.40239 10.9149 6.40239 8.74997 6.52586V5.46126C8.74997 5.33751 8.8405 5.23238 8.96288 5.21402L10.1828 5.03104ZM7.52853 8.11343C10.5046 7.8732 13.4953 7.8732 16.4714 8.11343L18.3433 8.26453C18.9675 8.31491 19.4766 8.78485 19.5767 9.40298C19.639 9.78791 19.6925 10.1739 19.7372 10.5607C14.8596 12.9625 9.14035 12.9625 4.26274 10.5607C4.3074 10.1739 4.36089 9.78791 4.42323 9.40298C4.52333 8.78485 5.03246 8.31491 5.65661 8.26453L7.52853 8.11343ZM4.12886 12.1567C9.12826 14.4304 14.8717 14.4304 19.8711 12.1567C19.9664 13.9729 19.8683 15.7967 19.5767 17.5971C19.4766 18.2153 18.9675 18.6852 18.3433 18.7356L16.4714 18.8867C13.4953 19.1269 10.5046 19.1269 7.52853 18.8867L5.65661 18.7356C5.03246 18.6852 4.52333 18.2153 4.42323 17.5971C4.13166 15.7967 4.03353 13.9729 4.12886 12.1567Z" fill="black"/>
</svg>
