<svg width="24" height="24" viewBox="0 0 24 24" fill="none" xmlns="http://www.w3.org/2000/svg">
<path d="M9.50003 15.2499C9.08582 15.2499 8.75003 15.5857 8.75003 15.9999C8.75003 16.4142 9.08582 16.7499 9.50003 16.7499H11.25V18.4999C11.25 18.9142 11.5858 19.2499 12 19.2499C12.4142 19.2499 12.75 18.9142 12.75 18.4999V16.7499H14.5C14.9142 16.7499 15.25 16.4142 15.25 15.9999C15.25 15.5857 14.9142 15.2499 14.5 15.2499H12.75V13.4999C12.75 13.0857 12.4142 12.7499 12 12.7499C11.5858 12.7499 11.25 13.0857 11.25 13.4999V15.2499H9.50003Z" fill="black"/>
<path fill-rule="evenodd" clip-rule="evenodd" d="M7.25003 5.46114V6.69892C6.88074 6.72677 6.51163 6.75788 6.14276 6.79223C4.47367 6.94769 3.19739 8.34836 3.19739 10.0247V17.9752C3.19739 19.6515 4.47367 21.0522 6.14276 21.2077C10.0392 21.5706 13.9609 21.5706 17.8573 21.2077C19.5264 21.0522 20.8027 19.6515 20.8027 17.9752V10.0247C20.8027 8.34836 19.5264 6.94769 17.8573 6.79223C17.4884 6.75788 17.1193 6.72677 16.75 6.69892V5.46114C16.75 4.59489 16.1163 3.859 15.2596 3.7305L14.0397 3.54751C12.6875 3.34468 11.3126 3.34468 9.96035 3.54751L8.74043 3.7305C7.88378 3.859 7.25003 4.59489 7.25003 5.46114ZM13.8172 5.03092C12.6125 4.85021 11.3876 4.85021 10.1829 5.03092L8.96295 5.2139C8.84056 5.23226 8.75003 5.33739 8.75003 5.46114V6.60373C10.9153 6.49217 13.0848 6.49217 15.25 6.60373V5.46114C15.25 5.33739 15.1595 5.23226 15.0371 5.2139L13.8172 5.03092ZM17.7182 8.28577C13.9143 7.93149 10.0857 7.93149 6.28186 8.28577C5.38397 8.3694 4.69739 9.12289 4.69739 10.0247V10.2499H19.3027V10.0247C19.3027 9.12289 18.6161 8.3694 17.7182 8.28577ZM19.3027 11.7499H4.69739V17.9752C4.69739 18.877 5.38397 19.6305 6.28186 19.7141C10.0857 20.0684 13.9143 20.0684 17.7182 19.7141C18.6161 19.6305 19.3027 18.877 19.3027 17.9752V11.7499Z" fill="black"/>
</svg>
